<?xml version="1.0" encoding="UTF-8"?>
<svg xmlns="http://www.w3.org/2000/svg" viewBox="0 0 1200 420" width="1200" height="420">
  <title>MapNote HK - Five note types agent workflow</title>
  <desc>Agent workflow: Property, Site visit, Client, Offer, Transaction</desc>

  <defs>
    <linearGradient id="brandGrad" x1="0%" y1="0%" x2="100%" y2="100%">
      <stop offset="0%" stop-color="#228B3B"/>
      <stop offset="100%" stop-color="#0EA5E9"/>
    </linearGradient>
    <marker id="arrow" markerWidth="8" markerHeight="8" refX="7" refY="4" orient="auto">
      <path d="M0,0 L8,4 L0,8 Z" fill="#64748B"/>
    </marker>
    <!-- Simple inline icons (no external fonts) -->
    <symbol id="icon-property" viewBox="0 0 24 24">
      <path fill="#FFFFFF" d="M4 20V9l8-5 8 5v11H4zm2-2h4v-5H6v5zm6 0h4v-8h-4v8z"/>
    </symbol>
    <symbol id="icon-visited" viewBox="0 0 24 24">
      <path fill="#FFFFFF" d="M12 5C8.1 5 5 8.1 5 12s3.1 7 7 7 7-3.1 7-7-3.1-7-7-7zm0 11c-2.2 0-4-1.8-4-4s1.8-4 4-4 4 1.8 4 4-1.8 4-4 4zm0-6.5c-1.4 0-2.5 1.1-2.5 2.5S10.6 14.5 12 14.5s2.5-1.1 2.5-2.5S13.4 9.5 12 9.5z"/>
    </symbol>
    <symbol id="icon-client" viewBox="0 0 24 24">
      <path fill="#FFFFFF" d="M12 12c2.2 0 4-1.8 4-4s-1.8-4-4-4-4 1.8-4 4 1.8 4 4 4zm0 2c-2.7 0-8 1.3-8 4v2h16v-2c0-2.7-5.3-4-8-4z"/>
    </symbol>
    <symbol id="icon-offer" viewBox="0 0 24 24">
      <path fill="#FFFFFF" d="M21.41 11.58l-9-9C12.05 2.22 11.55 2 11 2H4c-1.1 0-2 .9-2 2v7c0 .55.22 1.05.59 1.42l9 9c.36.36.86.58 1.41.58s1.05-.22 1.41-.59l7-7c.37-.36.59-.86.59-1.41 0-.55-.23-1.06-.59-1.42zM5.5 7C4.67 7 4 6.33 4 5.5S4.67 4 5.5 4 7 4.67 7 5.5 6.33 7 5.5 7z"/>
    </symbol>
    <symbol id="icon-transaction" viewBox="0 0 24 24">
      <path fill="#FFFFFF" d="M9 16.2 4.8 12l-1.4 1.4L9 19 21 7l-1.4-1.4L9 16.2z"/>
    </symbol>
  </defs>

  <!-- Background -->
  <rect width="1200" height="420" fill="#F7FAF9"/>

  <!-- Header -->
  <rect x="0" y="0" width="1200" height="88" fill="url(#brandGrad)"/>
  <text x="600" y="40" text-anchor="middle" font-family="PingFang TC, Noto Sans TC, sans-serif" font-size="28" font-weight="700" fill="#FFFFFF">&#22320;&#22294;&#31558;&#35352;</text>
  <text x="600" y="68" text-anchor="middle" font-family="PingFang TC, Noto Sans TC, sans-serif" font-size="16" font-weight="500" fill="#FFFFFF">&#20116;&#39006;&#31558;&#35352;&#183;&#19968;&#24373;&#22320;&#22294;&#183;&#20195;&#29702;&#20840;&#27969;&#31243;</text>

  <!-- Card helper: x positions 48, 268, 488, 708, 928 -->

  <!-- Step 1 Property -->
  <rect x="50" y="150" width="196" height="196" rx="16" fill="#E2E8F0" opacity="0.5"/>
  <rect x="48" y="148" width="200" height="200" rx="16" fill="#FFFFFF" stroke="#E2E8F0" stroke-width="1"/>
  <circle cx="148" cy="198" r="28" fill="#0369A1"/>
  <use href="#icon-property" x="136" y="186" width="24" height="24"/>
  <text x="148" y="252" text-anchor="middle" font-family="PingFang TC, Noto Sans TC, sans-serif" font-size="18" font-weight="700" fill="#0F172A">&#29289;&#26989;&#36039;&#26009;</text>
  <text x="148" y="278" text-anchor="middle" font-family="PingFang TC, Noto Sans TC, sans-serif" font-size="13" fill="#64748B">&#30436;&#28304;&#30740;&#31350;</text>
  <text x="148" y="298" text-anchor="middle" font-family="PingFang TC, Noto Sans TC, sans-serif" font-size="13" fill="#64748B">&#22823;&#24264;&#36039;&#26009;</text>
  <rect x="118" y="314" width="60" height="22" rx="11" fill="#E0F2FE"/>
  <text x="148" y="329" text-anchor="middle" font-family="sans-serif" font-size="11" font-weight="600" fill="#0369A1">1</text>

  <!-- Arrow 1-2 -->
  <line x1="250" y1="248" x2="266" y2="248" stroke="#64748B" stroke-width="2" marker-end="url(#arrow)"/>

  <!-- Step 2 Visited -->
  <rect x="270" y="150" width="196" height="196" rx="16" fill="#E2E8F0" opacity="0.5"/>
  <rect x="268" y="148" width="200" height="200" rx="16" fill="#FFFFFF" stroke="#E2E8F0" stroke-width="1"/>
  <circle cx="368" cy="198" r="28" fill="#228B3B"/>
  <use href="#icon-visited" x="356" y="186" width="24" height="24"/>
  <text x="368" y="252" text-anchor="middle" font-family="PingFang TC, Noto Sans TC, sans-serif" font-size="18" font-weight="700" fill="#0F172A">&#23526;&#22320;&#32771;&#23519;</text>
  <text x="368" y="278" text-anchor="middle" font-family="PingFang TC, Noto Sans TC, sans-serif" font-size="13" fill="#64748B">&#30475;&#27155;&#35352;&#37636;</text>
  <text x="368" y="298" text-anchor="middle" font-family="PingFang TC, Noto Sans TC, sans-serif" font-size="13" fill="#64748B">&#29694;&#22580;&#30456;&#29255;</text>
  <rect x="338" y="314" width="60" height="22" rx="11" fill="#DCFCE7"/>
  <text x="368" y="329" text-anchor="middle" font-family="sans-serif" font-size="11" font-weight="600" fill="#228B3B">2</text>

  <!-- Arrow 2-3 -->
  <line x1="470" y1="248" x2="486" y2="248" stroke="#64748B" stroke-width="2" marker-end="url(#arrow)"/>

  <!-- Step 3 Client -->
  <rect x="490" y="150" width="196" height="196" rx="16" fill="#E2E8F0" opacity="0.5"/>
  <rect x="488" y="148" width="200" height="200" rx="16" fill="#FFFFFF" stroke="#E2E8F0" stroke-width="1"/>
  <circle cx="588" cy="198" r="28" fill="#4F46E5"/>
  <use href="#icon-client" x="576" y="186" width="24" height="24"/>
  <text x="588" y="252" text-anchor="middle" font-family="PingFang TC, Noto Sans TC, sans-serif" font-size="18" font-weight="700" fill="#0F172A">&#23458;&#25142;&#38656;&#27714;</text>
  <text x="588" y="278" text-anchor="middle" font-family="PingFang TC, Noto Sans TC, sans-serif" font-size="13" fill="#64748B">&#36023;&#23478;&#31199;&#23458;</text>
  <text x="588" y="298" text-anchor="middle" font-family="PingFang TC, Noto Sans TC, sans-serif" font-size="13" fill="#64748B">&#38928;&#31639;&#20559;&#22909;</text>
  <rect x="558" y="314" width="60" height="22" rx="11" fill="#EEF2FF"/>
  <text x="588" y="329" text-anchor="middle" font-family="sans-serif" font-size="11" font-weight="600" fill="#4F46E5">3</text>

  <!-- Arrow 3-4 -->
  <line x1="690" y1="248" x2="706" y2="248" stroke="#64748B" stroke-width="2" marker-end="url(#arrow)"/>

  <!-- Step 4 Offer -->
  <rect x="710" y="150" width="196" height="196" rx="16" fill="#E2E8F0" opacity="0.5"/>
  <rect x="708" y="148" width="200" height="200" rx="16" fill="#FFFFFF" stroke="#E2E8F0" stroke-width="1"/>
  <circle cx="808" cy="198" r="28" fill="#0D9488"/>
  <use href="#icon-offer" x="796" y="186" width="24" height="24"/>
  <text x="808" y="252" text-anchor="middle" font-family="PingFang TC, Noto Sans TC, sans-serif" font-size="18" font-weight="700" fill="#0F172A">&#22577;&#20729;&#35352;&#37636;</text>
  <text x="808" y="278" text-anchor="middle" font-family="PingFang TC, Noto Sans TC, sans-serif" font-size="13" fill="#64748B">&#20986;&#20729;&#36996;&#20729;</text>
  <text x="808" y="298" text-anchor="middle" font-family="PingFang TC, Noto Sans TC, sans-serif" font-size="13" fill="#64748B">&#35696;&#20729;&#36942;&#31243;</text>
  <rect x="778" y="314" width="60" height="22" rx="11" fill="#CCFBF1"/>
  <text x="808" y="329" text-anchor="middle" font-family="sans-serif" font-size="11" font-weight="600" fill="#0D9488">4</text>

  <!-- Arrow 4-5 -->
  <line x1="910" y1="248" x2="926" y2="248" stroke="#64748B" stroke-width="2" marker-end="url(#arrow)"/>

  <!-- Step 5 Transaction -->
  <rect x="930" y="150" width="196" height="196" rx="16" fill="#E2E8F0" opacity="0.5"/>
  <rect x="928" y="148" width="200" height="200" rx="16" fill="#FFFFFF" stroke="#E2E8F0" stroke-width="1"/>
  <circle cx="1028" cy="198" r="28" fill="#B45309"/>
  <use href="#icon-transaction" x="1016" y="186" width="24" height="24"/>
  <text x="1028" y="252" text-anchor="middle" font-family="PingFang TC, Noto Sans TC, sans-serif" font-size="18" font-weight="700" fill="#0F172A">&#25104;&#20132;&#35352;&#37636;</text>
  <text x="1028" y="278" text-anchor="middle" font-family="PingFang TC, Noto Sans TC, sans-serif" font-size="13" fill="#64748B">&#36067;&#36067;&#25104;&#20132;</text>
  <text x="1028" y="298" text-anchor="middle" font-family="PingFang TC, Noto Sans TC, sans-serif" font-size="13" fill="#64748B">&#31199;&#36067;&#25104;&#20132;</text>
  <rect x="998" y="314" width="60" height="22" rx="11" fill="#FEF3C7"/>
  <text x="1028" y="329" text-anchor="middle" font-family="sans-serif" font-size="11" font-weight="600" fill="#B45309">5</text>

  <!-- Footer -->
  <text x="600" y="392" text-anchor="middle" font-family="PingFang TC, Noto Sans TC, sans-serif" font-size="14" font-weight="500" fill="#64748B">&#20195;&#29702;&#26381;&#21209;&#65292;&#22320;&#22294;&#35352;&#37636; &#183; MapNote HK</text>
</svg>
